<mxfile host="65bd71144e" pages="3">
    <diagram id="n852FFwdeZFfdnG2ZeFl" name="auth_system">
        <mxGraphModel dx="-435" dy="-452" grid="1" gridSize="10" guides="1" tooltips="1" connect="1" arrows="1" fold="1" page="1" pageScale="1" pageWidth="827" pageHeight="1169" math="0" shadow="0">
            <root>
                <mxCell id="0"/>
                <mxCell id="1" parent="0"/>
                <mxCell id="eDBVOEjWMJ-u0tXbxYwB-1" value="&lt;p style=&quot;line-height: 1.2;&quot;&gt;Sistema di autentication and authorization&lt;/p&gt;" style="rounded=0;whiteSpace=wrap;html=1;align=left;vertical-align=top;verticalAlign=top;spacing=0;gradientColor=none;" parent="1" vertex="1">
                    <mxGeometry x="980" y="1520" width="600" height="310" as="geometry"/>
                </mxCell>
                <mxCell id="eDBVOEjWMJ-u0tXbxYwB-4" value="UC1 - Autenticazione" style="ellipse;whiteSpace=wrap;html=1;" parent="1" vertex="1">
                    <mxGeometry x="1120" y="1715" width="120" height="60" as="geometry"/>
                </mxCell>
                <mxCell id="eDBVOEjWMJ-u0tXbxYwB-6" style="edgeStyle=none;rounded=0;orthogonalLoop=1;jettySize=auto;html=1;shadow=0;endArrow=none;endFill=0;startSize=999;endSize=6;sourcePerimeterSpacing=0;targetPerimeterSpacing=0;" parent="1" source="eDBVOEjWMJ-u0tXbxYwB-7" target="eDBVOEjWMJ-u0tXbxYwB-4" edge="1">
                    <mxGeometry relative="1" as="geometry"/>
                </mxCell>
                <mxCell id="eDBVOEjWMJ-u0tXbxYwB-7" value="Utente non autenticato" style="shape=umlActor;verticalLabelPosition=bottom;verticalAlign=top;html=1;outlineConnect=0;gradientColor=none;" parent="1" vertex="1">
                    <mxGeometry x="900" y="1560" width="30" height="60" as="geometry"/>
                </mxCell>
                <mxCell id="9L8fD9MHXZrOo0j1JA3S-8" value="UC3 - Ritorno del messaggio d'errore autenticazione" style="ellipse;whiteSpace=wrap;html=1;" parent="1" vertex="1">
                    <mxGeometry x="1120" y="1560" width="120" height="60" as="geometry"/>
                </mxCell>
                <mxCell id="9L8fD9MHXZrOo0j1JA3S-9" style="rounded=0;orthogonalLoop=1;jettySize=auto;html=1;dashed=1;" parent="1" source="9L8fD9MHXZrOo0j1JA3S-8" target="eDBVOEjWMJ-u0tXbxYwB-4" edge="1">
                    <mxGeometry relative="1" as="geometry">
                        <mxPoint x="1260.4836383135562" y="1731.6257694462774" as="targetPoint"/>
                        <mxPoint x="1450" y="1620" as="sourcePoint"/>
                    </mxGeometry>
                </mxCell>
                <mxCell id="9L8fD9MHXZrOo0j1JA3S-10" value="&amp;lt;&amp;lt;extend&amp;gt;&amp;gt;" style="edgeLabel;html=1;align=center;verticalAlign=middle;resizable=0;points=[];" parent="9L8fD9MHXZrOo0j1JA3S-9" vertex="1" connectable="0">
                    <mxGeometry x="-0.05" y="4" relative="1" as="geometry">
                        <mxPoint x="-2" y="-4" as="offset"/>
                    </mxGeometry>
                </mxCell>
                <mxCell id="JR8y10896WXVxQjD9Bp4-1" style="edgeStyle=none;rounded=0;jumpStyle=none;jumpSize=15;orthogonalLoop=1;jettySize=auto;html=1;endArrow=none;endFill=0;dashed=1;" parent="1" source="JR8y10896WXVxQjD9Bp4-2" edge="1">
                    <mxGeometry relative="1" as="geometry">
                        <mxPoint x="1180" y="1680" as="targetPoint"/>
                    </mxGeometry>
                </mxCell>
                <mxCell id="JR8y10896WXVxQjD9Bp4-2" value="Le credenziali inserite sono errate" style="shape=note;size=20;whiteSpace=wrap;html=1;" parent="1" vertex="1">
                    <mxGeometry x="1440" y="1590" width="110" height="90" as="geometry"/>
                </mxCell>
                <mxCell id="S0-Wv1Rz5std5YzEAasc-5" style="edgeStyle=none;rounded=0;orthogonalLoop=1;jettySize=auto;html=1;shadow=0;endArrow=none;endFill=0;startSize=999;endSize=6;sourcePerimeterSpacing=0;targetPerimeterSpacing=0;" parent="1" source="eDBVOEjWMJ-u0tXbxYwB-7" target="9L8fD9MHXZrOo0j1JA3S-8" edge="1">
                    <mxGeometry relative="1" as="geometry">
                        <mxPoint x="940" y="1610" as="sourcePoint"/>
                        <mxPoint x="1050" y="1610" as="targetPoint"/>
                    </mxGeometry>
                </mxCell>
            </root>
        </mxGraphModel>
    </diagram>
    <diagram id="saWqsss3OQP5BWs8VHwb" name="Maintenance_system">
        <mxGraphModel dx="153" dy="624" grid="1" gridSize="10" guides="1" tooltips="1" connect="1" arrows="1" fold="1" page="1" pageScale="1" pageWidth="827" pageHeight="1169" math="0" shadow="0">
            <root>
                <mxCell id="0"/>
                <mxCell id="1" parent="0"/>
                <mxCell id="fn8FObBDt6s6pIoeqfTw-3" value="Manutenzione" style="shape=umlFrame;whiteSpace=wrap;html=1;width=140;height=30;" parent="1" vertex="1">
                    <mxGeometry x="1060" y="1190" width="440" height="800" as="geometry"/>
                </mxCell>
                <mxCell id="s4T723TdLTKR_YwId5qL-2" value="UC6 - Apertura ticket di guasto" style="ellipse;whiteSpace=wrap;html=1;" parent="1" vertex="1">
                    <mxGeometry x="1136" y="1410" width="90" height="70" as="geometry"/>
                </mxCell>
                <mxCell id="s4T723TdLTKR_YwId5qL-3" style="edgeStyle=none;rounded=0;orthogonalLoop=1;jettySize=auto;html=1;startArrow=none;startFill=0;endArrow=none;endFill=0;" parent="1" source="s4T723TdLTKR_YwId5qL-2" target="s4T723TdLTKR_YwId5qL-5" edge="1">
                    <mxGeometry relative="1" as="geometry">
                        <mxPoint x="1460" y="1485" as="sourcePoint"/>
                    </mxGeometry>
                </mxCell>
                <mxCell id="s4T723TdLTKR_YwId5qL-5" value="Sensore di stato" style="shape=umlActor;verticalLabelPosition=bottom;verticalAlign=top;html=1;outlineConnect=0;gradientColor=none;" parent="1" vertex="1">
                    <mxGeometry x="920" y="1420" width="30" height="60" as="geometry"/>
                </mxCell>
                <mxCell id="s4T723TdLTKR_YwId5qL-7" style="edgeStyle=none;rounded=0;orthogonalLoop=1;jettySize=auto;html=1;startArrow=none;startFill=0;endArrow=none;endFill=0;" parent="1" source="s4T723TdLTKR_YwId5qL-8" target="s4T723TdLTKR_YwId5qL-12" edge="1">
                    <mxGeometry relative="1" as="geometry"/>
                </mxCell>
                <mxCell id="s4T723TdLTKR_YwId5qL-8" value="UC11 - Aggiunta lampione a sistema" style="ellipse;whiteSpace=wrap;html=1;" parent="1" vertex="1">
                    <mxGeometry x="1250" y="1660" width="120" height="60" as="geometry"/>
                </mxCell>
                <mxCell id="s4T723TdLTKR_YwId5qL-9" style="edgeStyle=none;rounded=0;jumpStyle=none;jumpSize=15;orthogonalLoop=1;jettySize=auto;html=1;endArrow=none;endFill=0;" parent="1" source="s4T723TdLTKR_YwId5qL-12" target="s4T723TdLTKR_YwId5qL-16" edge="1">
                    <mxGeometry relative="1" as="geometry"/>
                </mxCell>
                <mxCell id="s4T723TdLTKR_YwId5qL-10" style="edgeStyle=none;rounded=0;jumpStyle=none;jumpSize=15;orthogonalLoop=1;jettySize=auto;html=1;endArrow=none;endFill=0;" parent="1" source="s4T723TdLTKR_YwId5qL-12" target="s4T723TdLTKR_YwId5qL-20" edge="1">
                    <mxGeometry relative="1" as="geometry"/>
                </mxCell>
                <mxCell id="s4T723TdLTKR_YwId5qL-11" style="edgeStyle=none;rounded=0;jumpStyle=none;jumpSize=15;orthogonalLoop=1;jettySize=auto;html=1;endArrow=none;endFill=0;" parent="1" source="s4T723TdLTKR_YwId5qL-12" target="s4T723TdLTKR_YwId5qL-17" edge="1">
                    <mxGeometry relative="1" as="geometry"/>
                </mxCell>
                <mxCell id="s4T723TdLTKR_YwId5qL-12" value="Utente manutentore" style="shape=umlActor;verticalLabelPosition=bottom;verticalAlign=top;html=1;outlineConnect=0;gradientColor=none;" parent="1" vertex="1">
                    <mxGeometry x="910" y="1580" width="30" height="60" as="geometry"/>
                </mxCell>
                <mxCell id="s4T723TdLTKR_YwId5qL-13" style="edgeStyle=none;rounded=0;jumpStyle=none;jumpSize=15;orthogonalLoop=1;jettySize=auto;html=1;endArrow=none;endFill=0;" parent="1" source="s4T723TdLTKR_YwId5qL-15" target="s4T723TdLTKR_YwId5qL-2" edge="1">
                    <mxGeometry relative="1" as="geometry"/>
                </mxCell>
                <mxCell id="s4T723TdLTKR_YwId5qL-14" style="edgeStyle=none;rounded=0;jumpStyle=none;jumpSize=15;orthogonalLoop=1;jettySize=auto;html=1;endArrow=none;endFill=0;" parent="1" source="s4T723TdLTKR_YwId5qL-15" target="s4T723TdLTKR_YwId5qL-21" edge="1">
                    <mxGeometry relative="1" as="geometry"/>
                </mxCell>
                <mxCell id="s4T723TdLTKR_YwId5qL-15" value="Utente gestore" style="shape=umlActor;verticalLabelPosition=bottom;verticalAlign=top;html=1;outlineConnect=0;gradientColor=none;" parent="1" vertex="1">
                    <mxGeometry x="930" y="1280" width="30" height="60" as="geometry"/>
                </mxCell>
                <mxCell id="s4T723TdLTKR_YwId5qL-16" value="UC7 - Chiusura Ticket" style="ellipse;whiteSpace=wrap;html=1;" parent="1" vertex="1">
                    <mxGeometry x="1325" y="1535" width="90" height="70" as="geometry"/>
                </mxCell>
                <mxCell id="s4T723TdLTKR_YwId5qL-17" value="UC13 - Inserimento sensore a sistema" style="ellipse;whiteSpace=wrap;html=1;" parent="1" vertex="1">
                    <mxGeometry x="1150" y="1740" width="120" height="60" as="geometry"/>
                </mxCell>
                <mxCell id="s4T723TdLTKR_YwId5qL-18" value="&amp;lt;&amp;lt;include&amp;gt;&amp;gt;" style="edgeStyle=none;rounded=0;sketch=0;orthogonalLoop=1;jettySize=auto;html=1;shadow=0;dashed=1;startArrow=none;startFill=0;endArrow=classicThin;endFill=1;startSize=6;endSize=6;sourcePerimeterSpacing=0;targetPerimeterSpacing=0;" parent="1" source="s4T723TdLTKR_YwId5qL-19" target="s4T723TdLTKR_YwId5qL-21" edge="1">
                    <mxGeometry relative="1" as="geometry"/>
                </mxCell>
                <mxCell id="s4T723TdLTKR_YwId5qL-19" value="UC5 - Visualizzazione stato aree" style="ellipse;whiteSpace=wrap;html=1;" parent="1" vertex="1">
                    <mxGeometry x="1140" y="1300" width="120" height="60" as="geometry"/>
                </mxCell>
                <mxCell id="s4T723TdLTKR_YwId5qL-20" value="UC8 - Sostituzione lampione" style="ellipse;whiteSpace=wrap;html=1;" parent="1" vertex="1">
                    <mxGeometry x="1121" y="1605" width="120" height="50" as="geometry"/>
                </mxCell>
                <mxCell id="s4T723TdLTKR_YwId5qL-21" value="UC5.2&amp;nbsp;- Visualizzazione stato sensori" style="ellipse;whiteSpace=wrap;html=1;" parent="1" vertex="1">
                    <mxGeometry x="1300" y="1400" width="115" height="70" as="geometry"/>
                </mxCell>
                <mxCell id="s4T723TdLTKR_YwId5qL-22" value="UC5.1 - Visualizzazione stato lampioni" style="ellipse;whiteSpace=wrap;html=1;" parent="1" vertex="1">
                    <mxGeometry x="1250" y="1200" width="120" height="80" as="geometry"/>
                </mxCell>
                <mxCell id="s4T723TdLTKR_YwId5qL-23" style="edgeStyle=none;rounded=0;jumpStyle=none;jumpSize=15;orthogonalLoop=1;jettySize=auto;html=1;endArrow=none;endFill=0;" parent="1" source="s4T723TdLTKR_YwId5qL-24" target="s4T723TdLTKR_YwId5qL-12" edge="1">
                    <mxGeometry relative="1" as="geometry"/>
                </mxCell>
                <mxCell id="s4T723TdLTKR_YwId5qL-24" value="UC10 - Rimozione lampione dal sistema" style="ellipse;whiteSpace=wrap;html=1;" parent="1" vertex="1">
                    <mxGeometry x="1080" y="1920" width="132.5" height="50" as="geometry"/>
                </mxCell>
                <mxCell id="s4T723TdLTKR_YwId5qL-25" value="&amp;lt;&amp;lt;include&amp;gt;&amp;gt;" style="edgeStyle=none;rounded=0;sketch=0;orthogonalLoop=1;jettySize=auto;html=1;shadow=0;dashed=1;startArrow=none;startFill=0;endArrow=classicThin;endFill=1;startSize=6;endSize=6;sourcePerimeterSpacing=0;targetPerimeterSpacing=0;" parent="1" source="s4T723TdLTKR_YwId5qL-19" target="s4T723TdLTKR_YwId5qL-22" edge="1">
                    <mxGeometry relative="1" as="geometry">
                        <mxPoint x="867.9170929395486" y="912.1058016078509" as="sourcePoint"/>
                        <mxPoint x="832.2834405812459" y="867.8543007265575" as="targetPoint"/>
                    </mxGeometry>
                </mxCell>
                <mxCell id="fn8FObBDt6s6pIoeqfTw-2" value="UC12&amp;nbsp;- Aggiunta area di illuminazione&lt;span style=&quot;color: rgba(0 , 0 , 0 , 0) ; font-family: monospace ; font-size: 0px&quot;&gt;%3CmxGraphModel%3E%3Croot%3E%3CmxCell%20id%3D%220%22%2F%3E%3CmxCell%20id%3D%221%22%20parent%3D%220%22%2F%3E%3CmxCell%20id%3D%222%22%20value%3D%22Rimozione%20sensore%22%20style%3D%22ellipse%3BwhiteSpace%3Dwrap%3Bhtml%3D1%3B%22%20vertex%3D%221%22%20parent%3D%221%22%3E%3CmxGeometry%20x%3D%221430%22%20y%3D%2260%22%20width%3D%22120%22%20height%3D%2280%22%20as%3D%22geometry%22%2F%3E%3C%2FmxCell%3E%3C%2Froot%3E%3C%2FmxGraphModel%3E&lt;/span&gt;&lt;span style=&quot;color: rgba(0 , 0 , 0 , 0) ; font-family: monospace ; font-size: 0px&quot;&gt;%3CmxGraphModel%3E%3Croot%3E%3CmxCell%20id%3D%220%22%2F%3E%3CmxCell%20id%3D%221%22%20parent%3D%220%22%2F%3E%3CmxCell%20id%3D%222%22%20value%3D%22Rimozione%20sensore%22%20style%3D%22ellipse%3BwhiteSpace%3Dwrap%3Bhtml%3D1%3B%22%20vertex%3D%221%22%20parent%3D%221%22%3E%3CmxGeometry%20x%3D%221430%22%20y%3D%2260%22%20width%3D%22120%22%20height%3D%2280%22%20as%3D%22geometry%22%2F%3E%3C%2FmxCell%3E%3C%2Froot%3E%3C%2FmxGraphModel%3E&lt;/span&gt;&lt;span style=&quot;color: rgba(0 , 0 , 0 , 0) ; font-family: monospace ; font-size: 0px&quot;&gt;%3CmxGraphModel%3E%3Croot%3E%3CmxCell%20id%3D%220%22%2F%3E%3CmxCell%20id%3D%221%22%20parent%3D%220%22%2F%3E%3CmxCell%20id%3D%222%22%20value%3D%22Rimozione%20sensore%22%20style%3D%22ellipse%3BwhiteSpace%3Dwrap%3Bhtml%3D1%3B%22%20vertex%3D%221%22%20parent%3D%221%22%3E%3CmxGeometry%20x%3D%221430%22%20y%3D%2260%22%20width%3D%22120%22%20height%3D%2280%22%20as%3D%22geometry%22%2F%3E%3C%2FmxCell%3E%3C%2Froot%3E%3C%2FmxGraphModel%3Esa&lt;/span&gt;" style="ellipse;whiteSpace=wrap;html=1;" parent="1" vertex="1">
                    <mxGeometry x="1340" y="1760" width="150" height="40" as="geometry"/>
                </mxCell>
                <mxCell id="fn8FObBDt6s6pIoeqfTw-5" style="edgeStyle=none;rounded=0;jumpStyle=none;jumpSize=15;orthogonalLoop=1;jettySize=auto;html=1;endArrow=none;endFill=0;" parent="1" source="s4T723TdLTKR_YwId5qL-12" target="fn8FObBDt6s6pIoeqfTw-2" edge="1">
                    <mxGeometry relative="1" as="geometry">
                        <mxPoint x="910" y="1697.2093749053931" as="sourcePoint"/>
                        <mxPoint x="1136.0053136475103" y="1956.5033864501202" as="targetPoint"/>
                    </mxGeometry>
                </mxCell>
                <mxCell id="fn8FObBDt6s6pIoeqfTw-7" value="UC9 - Rimozione area dal sistema&lt;span style=&quot;color: rgba(0 , 0 , 0 , 0) ; font-family: monospace ; font-size: 0px&quot;&gt;%3CmxGraphModel%3E%3Croot%3E%3CmxCell%20id%3D%220%22%2F%3E%3CmxCell%20id%3D%221%22%20parent%3D%220%22%2F%3E%3CmxCell%20id%3D%222%22%20value%3D%22Rimozione%20sensore%22%20style%3D%22ellipse%3BwhiteSpace%3Dwrap%3Bhtml%3D1%3B%22%20vertex%3D%221%22%20parent%3D%221%22%3E%3CmxGeometry%20x%3D%221430%22%20y%3D%2260%22%20width%3D%22120%22%20height%3D%2280%22%20as%3D%22geometry%22%2F%3E%3C%2FmxCell%3E%3C%2Froot%3E%3C%2FmxGraphModel%3E&lt;/span&gt;&lt;span style=&quot;color: rgba(0 , 0 , 0 , 0) ; font-family: monospace ; font-size: 0px&quot;&gt;%3CmxGraphModel%3E%3Croot%3E%3CmxCell%20id%3D%220%22%2F%3E%3CmxCell%20id%3D%221%22%20parent%3D%220%22%2F%3E%3CmxCell%20id%3D%222%22%20value%3D%22Rimozione%20sensore%22%20style%3D%22ellipse%3BwhiteSpace%3Dwrap%3Bhtml%3D1%3B%22%20vertex%3D%221%22%20parent%3D%221%22%3E%3CmxGeometry%20x%3D%221430%22%20y%3D%2260%22%20width%3D%22120%22%20height%3D%2280%22%20as%3D%22geometry%22%2F%3E%3C%2FmxCell%3E%3C%2Froot%3E%3C%2FmxGraphModel%3E&lt;/span&gt;&lt;span style=&quot;color: rgba(0 , 0 , 0 , 0) ; font-family: monospace ; font-size: 0px&quot;&gt;%3CmxGraphModel%3E%3Croot%3E%3CmxCell%20id%3D%220%22%2F%3E%3CmxCell%20id%3D%221%22%20parent%3D%220%22%2F%3E%3CmxCell%20id%3D%222%22%20value%3D%22Rimozione%20sensore%22%20style%3D%22ellipse%3BwhiteSpace%3Dwrap%3Bhtml%3D1%3B%22%20vertex%3D%221%22%20parent%3D%221%22%3E%3CmxGeometry%20x%3D%221430%22%20y%3D%2260%22%20width%3D%22120%22%20height%3D%2280%22%20as%3D%22geometry%22%2F%3E%3C%2FmxCell%3E%3C%2Froot%3E%3C%2FmxGraphModel%3E&lt;/span&gt;" style="ellipse;whiteSpace=wrap;html=1;" parent="1" vertex="1">
                    <mxGeometry x="1170" y="1830" width="120" height="40" as="geometry"/>
                </mxCell>
                <mxCell id="fn8FObBDt6s6pIoeqfTw-8" style="edgeStyle=none;rounded=0;jumpStyle=none;jumpSize=15;orthogonalLoop=1;jettySize=auto;html=1;endArrow=none;endFill=0;" parent="1" source="fn8FObBDt6s6pIoeqfTw-7" target="s4T723TdLTKR_YwId5qL-12" edge="1">
                    <mxGeometry relative="1" as="geometry">
                        <mxPoint x="1100.3148913796435" y="1852.046346581269" as="sourcePoint"/>
                        <mxPoint x="910" y="1859.433962264151" as="targetPoint"/>
                    </mxGeometry>
                </mxCell>
                <mxCell id="toQnhxb0d-4jbj2uokZi-1" style="edgeStyle=none;rounded=0;sketch=0;orthogonalLoop=1;jettySize=auto;html=1;shadow=0;dashed=1;startArrow=none;startFill=0;endArrow=classicThin;endFill=1;startSize=6;endSize=6;sourcePerimeterSpacing=0;targetPerimeterSpacing=0;" parent="1" source="fn8FObBDt6s6pIoeqfTw-7" target="s4T723TdLTKR_YwId5qL-24" edge="1">
                    <mxGeometry relative="1" as="geometry">
                        <mxPoint x="1185.25" y="2520" as="sourcePoint"/>
                        <mxPoint x="1185.25" y="2560" as="targetPoint"/>
                    </mxGeometry>
                </mxCell>
                <mxCell id="toQnhxb0d-4jbj2uokZi-2" value="&amp;lt;&amp;lt;include&amp;gt;&amp;gt;" style="edgeLabel;html=1;align=center;verticalAlign=middle;resizable=0;points=[];" parent="toQnhxb0d-4jbj2uokZi-1" vertex="1" connectable="0">
                    <mxGeometry x="-0.3216" y="-3" relative="1" as="geometry">
                        <mxPoint as="offset"/>
                    </mxGeometry>
                </mxCell>
                <mxCell id="iKuX7a_l3s8Uyov5P7mT-1" style="edgeStyle=none;rounded=0;jumpStyle=none;jumpSize=15;orthogonalLoop=1;jettySize=auto;html=1;endArrow=none;endFill=0;" edge="1" parent="1" source="s4T723TdLTKR_YwId5qL-15" target="s4T723TdLTKR_YwId5qL-22">
                    <mxGeometry relative="1" as="geometry">
                        <mxPoint x="940" y="1428.4857603788219" as="sourcePoint"/>
                        <mxPoint x="1115.778806800694" y="1410.7410114574195" as="targetPoint"/>
                    </mxGeometry>
                </mxCell>
                <mxCell id="iKuX7a_l3s8Uyov5P7mT-2" style="edgeStyle=none;rounded=0;jumpStyle=none;jumpSize=15;orthogonalLoop=1;jettySize=auto;html=1;endArrow=none;endFill=0;" edge="1" parent="1" source="s4T723TdLTKR_YwId5qL-15" target="s4T723TdLTKR_YwId5qL-19">
                    <mxGeometry relative="1" as="geometry">
                        <mxPoint x="940" y="1428.4857603788219" as="sourcePoint"/>
                        <mxPoint x="1115.778806800694" y="1410.7410114574195" as="targetPoint"/>
                    </mxGeometry>
                </mxCell>
                <mxCell id="6jqLZfw_VrLGSRMtOYmc-1" value="Sistema di ticketing" style="shape=umlActor;verticalLabelPosition=bottom;verticalAlign=top;html=1;outlineConnect=0;gradientColor=none;" vertex="1" parent="1">
                    <mxGeometry x="1540" y="1530" width="30" height="60" as="geometry"/>
                </mxCell>
                <mxCell id="6jqLZfw_VrLGSRMtOYmc-2" style="edgeStyle=none;rounded=0;orthogonalLoop=1;jettySize=auto;html=1;startArrow=none;startFill=0;endArrow=none;endFill=0;" edge="1" parent="1" source="s4T723TdLTKR_YwId5qL-2" target="6jqLZfw_VrLGSRMtOYmc-1">
                    <mxGeometry relative="1" as="geometry">
                        <mxPoint x="1130.1433124658745" y="1567.791082779901" as="sourcePoint"/>
                        <mxPoint x="950" y="1579.0625" as="targetPoint"/>
                    </mxGeometry>
                </mxCell>
                <mxCell id="6jqLZfw_VrLGSRMtOYmc-3" style="edgeStyle=none;rounded=0;orthogonalLoop=1;jettySize=auto;html=1;startArrow=none;startFill=0;endArrow=none;endFill=0;" edge="1" parent="1" source="s4T723TdLTKR_YwId5qL-16" target="6jqLZfw_VrLGSRMtOYmc-1">
                    <mxGeometry relative="1" as="geometry">
                        <mxPoint x="1233.75" y="1570" as="sourcePoint"/>
                        <mxPoint x="1550" y="1570" as="targetPoint"/>
                    </mxGeometry>
                </mxCell>
                <mxCell id="6jqLZfw_VrLGSRMtOYmc-4" style="edgeStyle=none;rounded=0;sketch=0;orthogonalLoop=1;jettySize=auto;html=1;shadow=0;dashed=1;startArrow=none;startFill=0;endArrow=classicThin;endFill=1;startSize=6;endSize=6;sourcePerimeterSpacing=0;targetPerimeterSpacing=0;" edge="1" parent="1" source="s4T723TdLTKR_YwId5qL-20" target="s4T723TdLTKR_YwId5qL-16">
                    <mxGeometry relative="1" as="geometry">
                        <mxPoint x="1401.25" y="1860" as="sourcePoint"/>
                        <mxPoint x="1401.25" y="1900" as="targetPoint"/>
                    </mxGeometry>
                </mxCell>
                <mxCell id="6jqLZfw_VrLGSRMtOYmc-5" value="&amp;lt;&amp;lt;include&amp;gt;&amp;gt;" style="edgeLabel;html=1;align=center;verticalAlign=middle;resizable=0;points=[];" vertex="1" connectable="0" parent="6jqLZfw_VrLGSRMtOYmc-4">
                    <mxGeometry x="-0.3216" y="-3" relative="1" as="geometry">
                        <mxPoint as="offset"/>
                    </mxGeometry>
                </mxCell>
                <mxCell id="6jqLZfw_VrLGSRMtOYmc-7" value="UC8 - Sostituzione sensore" style="ellipse;whiteSpace=wrap;html=1;" vertex="1" parent="1">
                    <mxGeometry x="1121" y="1500" width="120" height="50" as="geometry"/>
                </mxCell>
                <mxCell id="6jqLZfw_VrLGSRMtOYmc-8" style="edgeStyle=none;rounded=0;jumpStyle=none;jumpSize=15;orthogonalLoop=1;jettySize=auto;html=1;endArrow=none;endFill=0;" edge="1" parent="1" source="s4T723TdLTKR_YwId5qL-12" target="6jqLZfw_VrLGSRMtOYmc-7">
                    <mxGeometry relative="1" as="geometry">
                        <mxPoint x="920" y="1857.5062273779233" as="sourcePoint"/>
                        <mxPoint x="1372.2451142347845" y="1782.3197950881474" as="targetPoint"/>
                    </mxGeometry>
                </mxCell>
                <mxCell id="6jqLZfw_VrLGSRMtOYmc-9" style="edgeStyle=none;rounded=0;sketch=0;orthogonalLoop=1;jettySize=auto;html=1;shadow=0;dashed=1;startArrow=none;startFill=0;endArrow=classicThin;endFill=1;startSize=6;endSize=6;sourcePerimeterSpacing=0;targetPerimeterSpacing=0;" edge="1" parent="1" source="6jqLZfw_VrLGSRMtOYmc-7" target="s4T723TdLTKR_YwId5qL-16">
                    <mxGeometry relative="1" as="geometry">
                        <mxPoint x="1411.9988898139584" y="1730.0222037208332" as="sourcePoint"/>
                        <mxPoint x="1414.42541470957" y="1689.9712180665738" as="targetPoint"/>
                    </mxGeometry>
                </mxCell>
                <mxCell id="6jqLZfw_VrLGSRMtOYmc-10" value="&amp;lt;&amp;lt;include&amp;gt;&amp;gt;" style="edgeLabel;html=1;align=center;verticalAlign=middle;resizable=0;points=[];" vertex="1" connectable="0" parent="6jqLZfw_VrLGSRMtOYmc-9">
                    <mxGeometry x="-0.3216" y="-3" relative="1" as="geometry">
                        <mxPoint as="offset"/>
                    </mxGeometry>
                </mxCell>
            </root>
        </mxGraphModel>
    </diagram>
    <diagram id="IBbKIGTaH5oFVvymoLLQ" name="Coordinator_service">
        <mxGraphModel dx="-304" dy="-213" grid="1" gridSize="10" guides="1" tooltips="1" connect="1" arrows="1" fold="1" page="1" pageScale="1" pageWidth="827" pageHeight="1169" math="0" shadow="0">
            <root>
                <mxCell id="0"/>
                <mxCell id="1" parent="0"/>
                <mxCell id="2VagC2onxQq-9sBipaqp-52" value="Coordinator_system" style="shape=umlFrame;whiteSpace=wrap;html=1;width=140;height=30;" parent="1" vertex="1">
                    <mxGeometry x="1000" y="1260" width="510" height="890" as="geometry"/>
                </mxCell>
                <mxCell id="2VagC2onxQq-9sBipaqp-49" style="edgeStyle=none;rounded=0;jumpStyle=none;jumpSize=15;orthogonalLoop=1;jettySize=auto;html=1;endArrow=none;endFill=0;" parent="1" source="L2JkNb_35XpvVV3SSh7o-5" target="2VagC2onxQq-9sBipaqp-5" edge="1">
                    <mxGeometry relative="1" as="geometry"/>
                </mxCell>
                <mxCell id="L2JkNb_35XpvVV3SSh7o-5" value="Lampione" style="shape=umlActor;verticalLabelPosition=bottom;verticalAlign=top;html=1;outlineConnect=0;" parent="1" vertex="1">
                    <mxGeometry x="1560" y="1560" width="30" height="60" as="geometry"/>
                </mxCell>
                <mxCell id="2VagC2onxQq-9sBipaqp-3" style="edgeStyle=none;rounded=0;sketch=0;orthogonalLoop=1;jettySize=auto;html=1;shadow=0;dashed=1;startArrow=none;startFill=0;endArrow=classicThin;endFill=1;startSize=6;endSize=6;sourcePerimeterSpacing=0;targetPerimeterSpacing=0;" parent="1" source="2VagC2onxQq-9sBipaqp-13" target="2VagC2onxQq-9sBipaqp-5" edge="1">
                    <mxGeometry relative="1" as="geometry"/>
                </mxCell>
                <mxCell id="2VagC2onxQq-9sBipaqp-4" value="&amp;lt;&amp;lt;include&amp;gt;&amp;gt;" style="edgeLabel;html=1;align=center;verticalAlign=middle;resizable=0;points=[];" parent="2VagC2onxQq-9sBipaqp-3" vertex="1" connectable="0">
                    <mxGeometry x="-0.2461" y="-3" relative="1" as="geometry">
                        <mxPoint y="-3" as="offset"/>
                    </mxGeometry>
                </mxCell>
                <mxCell id="2VagC2onxQq-9sBipaqp-5" value="UC19 - Aumento luminosità lampione" style="ellipse;whiteSpace=wrap;html=1;" parent="1" vertex="1">
                    <mxGeometry x="1371" y="1290" width="120" height="80" as="geometry"/>
                </mxCell>
                <mxCell id="2VagC2onxQq-9sBipaqp-11" value="UC23 - Impostazione livello luminosità lampione" style="ellipse;whiteSpace=wrap;html=1;" parent="1" vertex="1">
                    <mxGeometry x="1030" y="1820" width="120" height="60" as="geometry"/>
                </mxCell>
                <mxCell id="2VagC2onxQq-9sBipaqp-12" style="rounded=0;orthogonalLoop=1;jettySize=auto;html=1;endArrow=none;endFill=0;" parent="1" source="2VagC2onxQq-9sBipaqp-18" target="2VagC2onxQq-9sBipaqp-64" edge="1">
                    <mxGeometry relative="1" as="geometry">
                        <mxPoint x="1054.6934375807177" y="1744.332034918761" as="targetPoint"/>
                    </mxGeometry>
                </mxCell>
                <mxCell id="2VagC2onxQq-9sBipaqp-13" value="UC18 - Aumento luminosità globale" style="ellipse;whiteSpace=wrap;html=1;gradientColor=none;" parent="1" vertex="1">
                    <mxGeometry x="1215" y="1290" width="120" height="60" as="geometry"/>
                </mxCell>
                <mxCell id="2VagC2onxQq-9sBipaqp-51" style="edgeStyle=none;rounded=0;jumpStyle=none;jumpSize=15;orthogonalLoop=1;jettySize=auto;html=1;endArrow=none;endFill=0;" parent="1" source="2VagC2onxQq-9sBipaqp-18" target="2VagC2onxQq-9sBipaqp-50" edge="1">
                    <mxGeometry relative="1" as="geometry"/>
                </mxCell>
                <mxCell id="2VagC2onxQq-9sBipaqp-68" style="edgeStyle=none;rounded=0;jumpStyle=none;jumpSize=15;orthogonalLoop=1;jettySize=auto;html=1;endArrow=none;endFill=0;" parent="1" source="2VagC2onxQq-9sBipaqp-18" target="2VagC2onxQq-9sBipaqp-11" edge="1">
                    <mxGeometry relative="1" as="geometry"/>
                </mxCell>
                <mxCell id="2VagC2onxQq-9sBipaqp-18" value="Utente gestore" style="shape=umlActor;verticalLabelPosition=bottom;verticalAlign=top;html=1;outlineConnect=0;gradientColor=none;" parent="1" vertex="1">
                    <mxGeometry x="860" y="1860" width="30" height="60" as="geometry"/>
                </mxCell>
                <mxCell id="2VagC2onxQq-9sBipaqp-65" style="edgeStyle=none;rounded=0;jumpStyle=none;jumpSize=15;orthogonalLoop=1;jettySize=auto;html=1;endArrow=none;endFill=0;" parent="1" source="2VagC2onxQq-9sBipaqp-30" target="L2JkNb_35XpvVV3SSh7o-5" edge="1">
                    <mxGeometry relative="1" as="geometry"/>
                </mxCell>
                <mxCell id="2VagC2onxQq-9sBipaqp-30" value="UC24 - Abbassamento luminosità lampione" style="ellipse;whiteSpace=wrap;html=1;" parent="1" vertex="1">
                    <mxGeometry x="1360" y="1850" width="120" height="60" as="geometry"/>
                </mxCell>
                <mxCell id="2VagC2onxQq-9sBipaqp-62" style="edgeStyle=none;rounded=0;jumpStyle=none;jumpSize=15;orthogonalLoop=1;jettySize=auto;html=1;endArrow=none;endFill=0;" parent="1" source="2VagC2onxQq-9sBipaqp-42" target="2VagC2onxQq-9sBipaqp-56" edge="1">
                    <mxGeometry relative="1" as="geometry"/>
                </mxCell>
                <mxCell id="2VagC2onxQq-9sBipaqp-42" value="Time condition" style="shape=umlActor;verticalLabelPosition=bottom;verticalAlign=top;html=1;outlineConnect=0;gradientColor=none;" parent="1" vertex="1">
                    <mxGeometry x="910" y="1530" width="30" height="60" as="geometry"/>
                </mxCell>
                <mxCell id="2VagC2onxQq-9sBipaqp-43" value="UC16 - Impostazione in upper_thresold" style="ellipse;whiteSpace=wrap;html=1;gradientColor=none;" parent="1" vertex="1">
                    <mxGeometry x="1030" y="1340" width="120" height="60" as="geometry"/>
                </mxCell>
                <mxCell id="2VagC2onxQq-9sBipaqp-44" style="rounded=0;orthogonalLoop=1;jettySize=auto;html=1;endArrow=none;endFill=0;targetPerimeterSpacing=0;sourcePerimeterSpacing=0;endSize=6;shadow=0;" parent="1" source="2VagC2onxQq-9sBipaqp-45" target="2VagC2onxQq-9sBipaqp-43" edge="1">
                    <mxGeometry relative="1" as="geometry"/>
                </mxCell>
                <mxCell id="2VagC2onxQq-9sBipaqp-45" value="Sensore di presenza" style="shape=umlActor;verticalLabelPosition=bottom;verticalAlign=top;html=1;outlineConnect=0;gradientColor=none;" parent="1" vertex="1">
                    <mxGeometry x="910" y="1340" width="30" height="60" as="geometry"/>
                </mxCell>
                <mxCell id="2VagC2onxQq-9sBipaqp-47" style="edgeStyle=none;rounded=0;sketch=0;orthogonalLoop=1;jettySize=auto;html=1;shadow=0;dashed=1;startArrow=none;startFill=0;endArrow=classicThin;endFill=1;startSize=6;endSize=6;sourcePerimeterSpacing=0;targetPerimeterSpacing=0;" parent="1" source="2VagC2onxQq-9sBipaqp-13" target="2VagC2onxQq-9sBipaqp-43" edge="1">
                    <mxGeometry relative="1" as="geometry">
                        <mxPoint x="1508.8606362810892" y="1410.9206487941" as="sourcePoint"/>
                        <mxPoint x="1386.5809439866766" y="1461.0909039262006" as="targetPoint"/>
                    </mxGeometry>
                </mxCell>
                <mxCell id="2VagC2onxQq-9sBipaqp-48" value="&amp;lt;&amp;lt;extends&amp;gt;&amp;gt;" style="edgeLabel;html=1;align=center;verticalAlign=middle;resizable=0;points=[];" parent="2VagC2onxQq-9sBipaqp-47" vertex="1" connectable="0">
                    <mxGeometry x="-0.2461" y="-3" relative="1" as="geometry">
                        <mxPoint y="-3" as="offset"/>
                    </mxGeometry>
                </mxCell>
                <mxCell id="2VagC2onxQq-9sBipaqp-50" value="UC21 - Impostazione area di illuminazione in modalità automatica" style="ellipse;whiteSpace=wrap;html=1;" parent="1" vertex="1">
                    <mxGeometry x="1030" y="1600" width="140" height="70" as="geometry"/>
                </mxCell>
                <mxCell id="2VagC2onxQq-9sBipaqp-56" value="UC17 - Impostazione in lower_thresold" style="ellipse;whiteSpace=wrap;html=1;gradientColor=none;" parent="1" vertex="1">
                    <mxGeometry x="1030" y="1530" width="120" height="60" as="geometry"/>
                </mxCell>
                <mxCell id="2VagC2onxQq-9sBipaqp-57" style="edgeStyle=none;rounded=0;sketch=0;orthogonalLoop=1;jettySize=auto;html=1;shadow=0;dashed=1;startArrow=none;startFill=0;endArrow=classicThin;endFill=1;startSize=6;endSize=6;sourcePerimeterSpacing=0;targetPerimeterSpacing=0;" parent="1" source="2VagC2onxQq-9sBipaqp-61" target="2VagC2onxQq-9sBipaqp-56" edge="1">
                    <mxGeometry relative="1" as="geometry">
                        <mxPoint x="1279.9963407325138" y="1630.8729685789713" as="sourcePoint"/>
                        <mxPoint x="1132.3132767758425" y="1569.2055319899346" as="targetPoint"/>
                    </mxGeometry>
                </mxCell>
                <mxCell id="2VagC2onxQq-9sBipaqp-58" value="&amp;lt;&amp;lt;extends&amp;gt;&amp;gt;" style="edgeLabel;html=1;align=center;verticalAlign=middle;resizable=0;points=[];" parent="2VagC2onxQq-9sBipaqp-57" vertex="1" connectable="0">
                    <mxGeometry x="-0.2461" y="-3" relative="1" as="geometry">
                        <mxPoint y="-3" as="offset"/>
                    </mxGeometry>
                </mxCell>
                <mxCell id="2VagC2onxQq-9sBipaqp-59" style="edgeStyle=none;rounded=0;jumpStyle=none;jumpSize=15;orthogonalLoop=1;jettySize=auto;html=1;endArrow=none;endFill=0;dashed=1;" parent="1" source="2VagC2onxQq-9sBipaqp-60" edge="1">
                    <mxGeometry relative="1" as="geometry">
                        <mxPoint x="1180" y="1570" as="targetPoint"/>
                    </mxGeometry>
                </mxCell>
                <mxCell id="2VagC2onxQq-9sBipaqp-60" value="L'area di illuminazione è impostata in modalità automatica" style="shape=note;size=20;whiteSpace=wrap;html=1;" parent="1" vertex="1">
                    <mxGeometry x="1225" y="1410" width="110" height="90" as="geometry"/>
                </mxCell>
                <mxCell id="2VagC2onxQq-9sBipaqp-61" value="UC20 - Abbassamento luminosità globale" style="ellipse;whiteSpace=wrap;html=1;" parent="1" vertex="1">
                    <mxGeometry x="1230" y="1550" width="120" height="60" as="geometry"/>
                </mxCell>
                <mxCell id="2VagC2onxQq-9sBipaqp-64" value="UC22 - Impostazione area di illuminazione in modalità manuale" style="ellipse;whiteSpace=wrap;html=1;" parent="1" vertex="1">
                    <mxGeometry x="1030" y="1700" width="140" height="70" as="geometry"/>
                </mxCell>
                <mxCell id="2VagC2onxQq-9sBipaqp-69" style="edgeStyle=none;rounded=0;sketch=0;orthogonalLoop=1;jettySize=auto;html=1;shadow=0;dashed=1;startArrow=none;startFill=0;endArrow=classicThin;endFill=1;startSize=6;endSize=6;sourcePerimeterSpacing=0;targetPerimeterSpacing=0;" parent="1" source="2VagC2onxQq-9sBipaqp-5" target="2VagC2onxQq-9sBipaqp-11" edge="1">
                    <mxGeometry relative="1" as="geometry">
                        <mxPoint x="1273.330192197644" y="1600.1443812517641" as="sourcePoint"/>
                        <mxPoint x="1156.6698078023667" y="1579.8556187482377" as="targetPoint"/>
                        <Array as="points">
                            <mxPoint x="1370" y="1610"/>
                            <mxPoint x="1230" y="1680"/>
                        </Array>
                    </mxGeometry>
                </mxCell>
                <mxCell id="2VagC2onxQq-9sBipaqp-70" value="&amp;lt;&amp;lt;extends&amp;gt;&amp;gt;" style="edgeLabel;html=1;align=center;verticalAlign=middle;resizable=0;points=[];" parent="2VagC2onxQq-9sBipaqp-69" vertex="1" connectable="0">
                    <mxGeometry x="-0.2461" y="-3" relative="1" as="geometry">
                        <mxPoint x="-117" y="75" as="offset"/>
                    </mxGeometry>
                </mxCell>
                <mxCell id="2VagC2onxQq-9sBipaqp-71" style="edgeStyle=none;rounded=0;sketch=0;orthogonalLoop=1;jettySize=auto;html=1;shadow=0;dashed=1;startArrow=none;startFill=0;endArrow=classicThin;endFill=1;startSize=6;endSize=6;sourcePerimeterSpacing=0;targetPerimeterSpacing=0;" parent="1" source="2VagC2onxQq-9sBipaqp-30" target="2VagC2onxQq-9sBipaqp-11" edge="1">
                    <mxGeometry relative="1" as="geometry">
                        <mxPoint x="1283.330192197644" y="1610.1443812517641" as="sourcePoint"/>
                        <mxPoint x="1166.6698078023667" y="1589.8556187482377" as="targetPoint"/>
                        <Array as="points"/>
                    </mxGeometry>
                </mxCell>
                <mxCell id="2VagC2onxQq-9sBipaqp-72" value="&amp;lt;&amp;lt;extends&amp;gt;&amp;gt;" style="edgeLabel;html=1;align=center;verticalAlign=middle;resizable=0;points=[];" parent="2VagC2onxQq-9sBipaqp-71" vertex="1" connectable="0">
                    <mxGeometry x="-0.2461" y="-3" relative="1" as="geometry">
                        <mxPoint y="-3" as="offset"/>
                    </mxGeometry>
                </mxCell>
                <mxCell id="2VagC2onxQq-9sBipaqp-73" style="edgeStyle=none;rounded=0;sketch=0;orthogonalLoop=1;jettySize=auto;html=1;shadow=0;dashed=1;startArrow=none;startFill=0;endArrow=classicThin;endFill=1;startSize=6;endSize=6;sourcePerimeterSpacing=0;targetPerimeterSpacing=0;" parent="1" source="2VagC2onxQq-9sBipaqp-61" target="2VagC2onxQq-9sBipaqp-30" edge="1">
                    <mxGeometry relative="1" as="geometry">
                        <mxPoint x="1386.5809439866766" y="1461.0909039262006" as="sourcePoint"/>
                        <mxPoint x="1508.8606362810892" y="1410.9206487941" as="targetPoint"/>
                    </mxGeometry>
                </mxCell>
                <mxCell id="2VagC2onxQq-9sBipaqp-74" value="&amp;lt;&amp;lt;include&amp;gt;&amp;gt;" style="edgeLabel;html=1;align=center;verticalAlign=middle;resizable=0;points=[];" parent="2VagC2onxQq-9sBipaqp-73" vertex="1" connectable="0">
                    <mxGeometry x="-0.2461" y="-3" relative="1" as="geometry">
                        <mxPoint y="-3" as="offset"/>
                    </mxGeometry>
                </mxCell>
                <mxCell id="LNLngqZgq_UNVm3UrndU-1" value="UC25 - Impostazione livelli per automatismo&lt;br&gt;&amp;nbsp;luminosità area" style="ellipse;whiteSpace=wrap;html=1;" parent="1" vertex="1">
                    <mxGeometry x="1030" y="1900" width="120" height="80" as="geometry"/>
                </mxCell>
                <mxCell id="LNLngqZgq_UNVm3UrndU-2" style="edgeStyle=none;rounded=0;jumpStyle=none;jumpSize=15;orthogonalLoop=1;jettySize=auto;html=1;endArrow=none;endFill=0;" parent="1" source="2VagC2onxQq-9sBipaqp-18" target="LNLngqZgq_UNVm3UrndU-1" edge="1">
                    <mxGeometry relative="1" as="geometry">
                        <mxPoint x="967" y="1896.6554054054054" as="sourcePoint"/>
                        <mxPoint x="1067.5323724755353" y="1974.7717759100442" as="targetPoint"/>
                    </mxGeometry>
                </mxCell>
                <mxCell id="HCF3C3fgNp9zsQ5d-n_9-1" value="UC26 - Impostazione luminosità area" style="ellipse;whiteSpace=wrap;html=1;" parent="1" vertex="1">
                    <mxGeometry x="1030" y="2000" width="120" height="60" as="geometry"/>
                </mxCell>
                <mxCell id="HCF3C3fgNp9zsQ5d-n_9-2" value="UC07 - Visualizzazione informazioni area" style="ellipse;whiteSpace=wrap;html=1;" parent="1" vertex="1">
                    <mxGeometry x="1030" y="2080" width="120" height="60" as="geometry"/>
                </mxCell>
                <mxCell id="HCF3C3fgNp9zsQ5d-n_9-3" style="edgeStyle=none;rounded=0;jumpStyle=none;jumpSize=15;orthogonalLoop=1;jettySize=auto;html=1;endArrow=none;endFill=0;" parent="1" source="2VagC2onxQq-9sBipaqp-18" target="HCF3C3fgNp9zsQ5d-n_9-1" edge="1">
                    <mxGeometry relative="1" as="geometry">
                        <mxPoint x="960" y="1805.483870967742" as="sourcePoint"/>
                        <mxPoint x="1067.4484741114593" y="1916.3984248892484" as="targetPoint"/>
                    </mxGeometry>
                </mxCell>
                <mxCell id="HCF3C3fgNp9zsQ5d-n_9-4" style="edgeStyle=none;rounded=0;jumpStyle=none;jumpSize=15;orthogonalLoop=1;jettySize=auto;html=1;endArrow=none;endFill=0;" parent="1" source="2VagC2onxQq-9sBipaqp-18" target="HCF3C3fgNp9zsQ5d-n_9-2" edge="1">
                    <mxGeometry relative="1" as="geometry">
                        <mxPoint x="970" y="1815.483870967742" as="sourcePoint"/>
                        <mxPoint x="1077.4484741114593" y="1926.3984248892484" as="targetPoint"/>
                    </mxGeometry>
                </mxCell>
                <mxCell id="nTe6kpf7neXV7AtW7A1S-1" style="edgeStyle=none;rounded=0;jumpStyle=none;jumpSize=15;orthogonalLoop=1;jettySize=auto;html=1;endArrow=none;endFill=0;dashed=1;" edge="1" parent="1" source="nTe6kpf7neXV7AtW7A1S-2">
                    <mxGeometry relative="1" as="geometry">
                        <mxPoint x="1240" y="1680" as="targetPoint"/>
                    </mxGeometry>
                </mxCell>
                <mxCell id="nTe6kpf7neXV7AtW7A1S-2" value="L'area di illuminazione è impostata in modalità automatica" style="shape=note;size=20;whiteSpace=wrap;html=1;" vertex="1" parent="1">
                    <mxGeometry x="1220" y="1740" width="110" height="90" as="geometry"/>
                </mxCell>
                <mxCell id="nTe6kpf7neXV7AtW7A1S-3" style="edgeStyle=none;rounded=0;jumpStyle=none;jumpSize=15;orthogonalLoop=1;jettySize=auto;html=1;endArrow=none;endFill=0;dashed=1;" edge="1" parent="1" target="nTe6kpf7neXV7AtW7A1S-2">
                    <mxGeometry relative="1" as="geometry">
                        <mxPoint x="1400" y="1530" as="targetPoint"/>
                        <mxPoint x="1265" y="1860" as="sourcePoint"/>
                    </mxGeometry>
                </mxCell>
                <mxCell id="nTe6kpf7neXV7AtW7A1S-4" style="edgeStyle=none;rounded=0;jumpStyle=none;jumpSize=15;orthogonalLoop=1;jettySize=auto;html=1;endArrow=none;endFill=0;dashed=1;" edge="1" parent="1" target="2VagC2onxQq-9sBipaqp-60">
                    <mxGeometry relative="1" as="geometry">
                        <mxPoint x="1410" y="1540" as="targetPoint"/>
                        <mxPoint x="1180" y="1340" as="sourcePoint"/>
                    </mxGeometry>
                </mxCell>
            </root>
        </mxGraphModel>
    </diagram>
</mxfile>